<svg xmlns="http://www.w3.org/2000/svg" width="280" height="60" viewBox="0 0 280 60"><path fill="#231F20" d="M274 60h-268c-3.3 0-6-2.7-6-6v-48c0-3.3 2.7-6 6-6h268c3.3 0 6 2.7 6 6v48c0 3.3-2.7 6-6 6z"/><g fill="#fff"><path d="M64 18.6c0-.3.2-.6.6-.6h12.6c.3 0 .6.3.6.6v2.5c0 .3-.2.6-.6.6h-9.2v5.8h7.7c.3 0 .6.3.6.6v2.5c0 .3-.3.6-.6.6h-7.7v7.8c0 .3-.3.6-.6.6h-2.9c-.3 0-.6-.3-.6-.6v-20.4zM86.1 25.1c4.1 0 7.3 3.4 7.3 7.4 0 4.1-3.3 7.5-7.3 7.5s-7.3-3.4-7.3-7.5c0-4 3.3-7.4 7.3-7.4zm0 11.4c2.1 0 3.8-1.8 3.8-4s-1.7-3.9-3.8-3.9-3.7 1.7-3.7 3.9 1.7 4 3.7 4zM96.5 26.1c0-.4.3-.7.7-.7h1.1c.3 0 .5.2.6.5l.5 1.4c.5-.7 1.8-2.2 4-2.2 1.7 0 3.1.5 2.7 1.4l-.9 2.1c-.2.3-.5.5-.8.3-.3-.2-.7-.3-1.3-.3-1.5 0-2.5 1-2.7 1.5v8.9c0 .5-.3.7-.8.7h-2.4c-.3 0-.7-.3-.7-.7v-12.9zM108.5 18.7c0-.3.3-.7.7-.7h2.5c.4 0 .7.3.7.7v12.1l4.9-5c.2-.2.5-.4.9-.4h2.9c.6 0 .8.7.5 1.1l-5.6 5.5 6 6.7c.4.4.2 1-.4 1h-3c-.2 0-.5-.1-.6-.3l-5.4-6.4v6c0 .4-.3.7-.7.7h-2.5c-.3 0-.7-.3-.7-.7v-20.3zM138.5 25.1c4.1 0 7.3 3.4 7.3 7.4 0 4.1-3.3 7.5-7.3 7.5s-7.3-3.4-7.3-7.5c-.1-4 3.2-7.4 7.3-7.4zm0 11.4c2.1 0 3.8-1.8 3.8-4s-1.7-3.9-3.8-3.9c-2.1 0-3.7 1.7-3.7 3.9-.1 2.2 1.6 4 3.7 4zM148.9 26.1c0-.4.3-.7.7-.7h1.2c.3 0 .5.2.6.4l.5 1.3c.5-.6 1.9-2.1 4.6-2.1 4.6 0 5.7 3.1 5.7 6.5v7.5c0 .4-.3.7-.7.7h-2.5c-.4 0-.7-.3-.7-.7v-7.4c0-1.9-.7-3-2.5-3-1.9 0-2.8 1.2-3.1 2.2v8.2c0 .5-.2.7-.9.7h-2.3c-.3 0-.7-.3-.7-.7v-12.9zM184 17.7c2.8 0 5.5 1.1 7.6 2.9.2.2.3.6 0 .9l-1.9 2c-.2.2-.5.2-.8 0-1.3-1.2-3-1.8-4.7-1.8-3.9 0-6.9 3.3-6.9 7.2 0 3.8 3.1 7.1 7 7.1 1.7 0 3.1-.5 3.7-.8v-2.6h-2.5c-.3 0-.6-.2-.6-.6v-2.4c0-.3.2-.6.6-.6h6c.3 0 .6.3.6.6v7.9c0 .2-.1.4-.2.5 0 0-3.2 2-7.7 2-6.2 0-11.1-4.9-11.1-11.1s4.7-11.2 10.9-11.2zM194.9 20.4c0-1.4 1.1-2.4 2.4-2.4s2.5 1.1 2.5 2.4-1.1 2.5-2.5 2.5-2.4-1.1-2.4-2.5zm.6 5.7c0-.4.3-.7.7-.7h2.5c.3 0 .7.3.7.7v13c0 .4-.3.7-.7.7h-2.5c-.3 0-.7-.3-.7-.7v-13zM204.3 28.8h-1.4c-.4 0-.7-.3-.7-.7v-2.1c0-.4.3-.7.7-.7h1.4v-4c0-.4.3-.7.7-.7h2.5c.4 0 .7.3.7.7v4h3.3c.4 0 .7.3.7.7v2.1c0 .3-.3.7-.7.7h-3.3v6.4c0 1 .5 1.2 1.2 1.2.6 0 1.8-.3 2.2-.5.4-.2.7 0 .8.4l.4 1.9c.1.4-.1.7-.4.8-.5.3-2.5.9-4 .9-3.2 0-4-2.1-4-4.6v-6.5zM215.4 18.7c0-.3.3-.7.7-.7h2.5c.4 0 .7.3.7.7v7.6c.7-.6 2-1.2 3.7-1.2 4.6 0 5.8 3.2 5.8 6.8v7.1c0 .4-.3.7-.7.7h-2.5c-.4 0-.7-.3-.7-.7v-7.2c0-2-.9-3.2-2.6-3.2-1.7 0-2.6 1.1-3 2.5v7.9c0 .4-.2.7-.7.7h-2.4c-.3 0-.7-.3-.7-.7v-20.3zM232.4 26.1c0-.4.3-.7.7-.7h2.5c.4 0 .7.3.7.7v7.6c0 1.9.7 2.9 2.4 2.9 1.6 0 2.3-1.4 2.5-2.7v-7.8c0-.6.2-.7.8-.7h2.4c.4 0 .7.3.7.7v13c0 .4-.3.7-.7.7h-1.1c-.3 0-.6-.2-.7-.5l-.4-1.2c-.7.8-2.2 2.1-4.4 2.1-4.4 0-5.4-2.8-5.4-6.4v-7.7zM249 18.7c0-.3.3-.7.7-.7h2.5c.4 0 .7.3.7.7v7c.7-.3 2.1-.6 3.5-.6 4.2 0 6.9 3.3 6.9 7.5 0 4.1-2.8 7.5-6.7 7.5-3.1 0-4.8-2.1-4.8-2.1l-.3 1.1c-.2.4-.4.7-.7.7h-1.1c-.3 0-.7-.3-.7-.7v-20.4zm7.1 17.8c2.2 0 3.4-2 3.4-4s-1.2-3.9-3.6-3.9c-1.8 0-3 .8-3 .8v5.1c.3.8 1.3 2 3.2 2z"/></g><path fill-rule="evenodd" clip-rule="evenodd" fill="#fff" d="M33 13.7c-9.3 0-16.8 7.5-16.8 16.8 0 7.4 4.8 13.7 11.5 15.9.8.2 1.1-.4 1.1-.8v-2.8c-4.7 1-5.6-2.2-5.6-2.2-.8-1.9-1.9-2.5-1.9-2.5-1.5-1 .1-1 .1-1 1.7.1 2.6 1.7 2.6 1.7 1.5 2.6 3.9 1.8 4.9 1.4.2-1.1.6-1.8 1.1-2.2-3.7-.4-7.6-1.9-7.6-8.3 0-1.8.7-3.3 1.7-4.5-.2-.4-.7-2.1.2-4.4 0 0 1.4-.5 4.6 1.7 1.3-.4 2.8-.6 4.2-.6 1.4 0 2.9.2 4.2.6 3.2-2.2 4.6-1.7 4.6-1.7.9 2.3.3 4 .2 4.4 1.1 1.2 1.7 2.7 1.7 4.5 0 6.4-3.9 7.9-7.7 8.3.6.5 1.1 1.5 1.1 3.1v4.6c0 .4.3 1 1.2.8 6.7-2.2 11.4-8.5 11.4-15.9 0-9.4-7.5-16.9-16.8-16.9z"/></svg>