<!-- Generator: Adobe Illustrator 19.0.1, SVG Export Plug-In  -->
<svg version="1.1"
   xmlns="http://www.w3.org/2000/svg" xmlns:xlink="http://www.w3.org/1999/xlink" xmlns:a="http://ns.adobe.com/AdobeSVGViewerExtensions/3.0/"
   x="0px" y="0px" width="280px" height="60px" viewBox="0 0 280 60" enable-background="new 0 0 280 60" xml:space="preserve">
<defs>
</defs>
<g>
  <path fill="#231F20" d="M274,60H6c-3.3,0-6-2.7-6-6V6c0-3.3,2.7-6,6-6h268c3.3,0,6,2.7,6,6v48C280,57.3,277.3,60,274,60z"/>
  <g>
    <path fill="#FFFFFF" d="M64,18.6c0-0.3,0.2-0.6,0.6-0.6h12.6c0.3,0,0.6,0.3,0.6,0.6v2.5c0,0.3-0.2,0.6-0.6,0.6H68v5.8h7.7
      c0.3,0,0.6,0.3,0.6,0.6v2.5c0,0.3-0.3,0.6-0.6,0.6H68v7.8c0,0.3-0.3,0.6-0.6,0.6h-2.9c-0.3,0-0.6-0.3-0.6-0.6V18.6z"/>
    <path fill="#FFFFFF" d="M86.1,25.1c4.1,0,7.3,3.4,7.3,7.4c0,4.1-3.3,7.5-7.3,7.5c-4,0-7.3-3.4-7.3-7.5
      C78.8,28.5,82.1,25.1,86.1,25.1z M86.1,36.5c2.1,0,3.8-1.8,3.8-4c0-2.2-1.7-3.9-3.8-3.9s-3.7,1.7-3.7,3.9
      C82.4,34.7,84.1,36.5,86.1,36.5z"/>
    <path fill="#FFFFFF" d="M96.5,26.1c0-0.4,0.3-0.7,0.7-0.7h1.1c0.3,0,0.5,0.2,0.6,0.5l0.5,1.4c0.5-0.7,1.8-2.2,4-2.2
      c1.7,0,3.1,0.5,2.7,1.4l-0.9,2.1c-0.2,0.3-0.5,0.5-0.8,0.3c-0.3-0.2-0.7-0.3-1.3-0.3c-1.5,0-2.5,1-2.7,1.5V39
      c0,0.5-0.3,0.7-0.8,0.7h-2.4c-0.3,0-0.7-0.3-0.7-0.7V26.1z"/>
    <path fill="#FFFFFF" d="M108.5,18.7c0-0.3,0.3-0.7,0.7-0.7h2.5c0.4,0,0.7,0.3,0.7,0.7v12.1l4.9-5c0.2-0.2,0.5-0.4,0.9-0.4h2.9
      c0.6,0,0.8,0.7,0.5,1.1L116,32l6,6.7c0.4,0.4,0.2,1-0.4,1h-3c-0.2,0-0.5-0.1-0.6-0.3l-5.4-6.4v6c0,0.4-0.3,0.7-0.7,0.7h-2.5
      c-0.3,0-0.7-0.3-0.7-0.7V18.7z"/>
    <path fill="#FFFFFF" d="M138.5,25.1c4.1,0,7.3,3.4,7.3,7.4c0,4.1-3.3,7.5-7.3,7.5c-4,0-7.3-3.4-7.3-7.5
      C131.1,28.5,134.4,25.1,138.5,25.1z M138.5,36.5c2.1,0,3.8-1.8,3.8-4c0-2.2-1.7-3.9-3.8-3.9c-2.1,0-3.7,1.7-3.7,3.9
      C134.7,34.7,136.4,36.5,138.5,36.5z"/>
    <path fill="#FFFFFF" d="M148.9,26.1c0-0.4,0.3-0.7,0.7-0.7h1.2c0.3,0,0.5,0.2,0.6,0.4l0.5,1.3c0.5-0.6,1.9-2.1,4.6-2.1
      c4.6,0,5.7,3.1,5.7,6.5V39c0,0.4-0.3,0.7-0.7,0.7H159c-0.4,0-0.7-0.3-0.7-0.7v-7.4c0-1.9-0.7-3-2.5-3c-1.9,0-2.8,1.2-3.1,2.2V39
      c0,0.5-0.2,0.7-0.9,0.7h-2.3c-0.3,0-0.7-0.3-0.7-0.7V26.1z"/>
    <path fill="#FFFFFF" d="M184,17.7c2.8,0,5.5,1.1,7.6,2.9c0.2,0.2,0.3,0.6,0,0.9l-1.9,2c-0.2,0.2-0.5,0.2-0.8,0
      c-1.3-1.2-3-1.8-4.7-1.8c-3.9,0-6.9,3.3-6.9,7.2c0,3.8,3.1,7.1,7,7.1c1.7,0,3.1-0.5,3.7-0.8v-2.6h-2.5c-0.3,0-0.6-0.2-0.6-0.6
      v-2.4c0-0.3,0.2-0.6,0.6-0.6h6c0.3,0,0.6,0.3,0.6,0.6v7.9c0,0.2-0.1,0.4-0.2,0.5c0,0-3.2,2-7.7,2c-6.2,0-11.1-4.9-11.1-11.1
      S177.8,17.7,184,17.7z"/>
    <path fill="#FFFFFF" d="M194.9,20.4c0-1.4,1.1-2.4,2.4-2.4s2.5,1.1,2.5,2.4s-1.1,2.5-2.5,2.5S194.9,21.8,194.9,20.4z M195.5,26.1
      c0-0.4,0.3-0.7,0.7-0.7h2.5c0.3,0,0.7,0.3,0.7,0.7v13c0,0.4-0.3,0.7-0.7,0.7h-2.5c-0.3,0-0.7-0.3-0.7-0.7V26.1z"/>
    <path fill="#FFFFFF" d="M204.3,28.8h-1.4c-0.4,0-0.7-0.3-0.7-0.7v-2.1c0-0.4,0.3-0.7,0.7-0.7h1.4v-4c0-0.4,0.3-0.7,0.7-0.7h2.5
      c0.4,0,0.7,0.3,0.7,0.7v4h3.3c0.4,0,0.7,0.3,0.7,0.7v2.1c0,0.3-0.3,0.7-0.7,0.7h-3.3v6.4c0,1,0.5,1.2,1.2,1.2
      c0.6,0,1.8-0.3,2.2-0.5c0.4-0.2,0.7,0,0.8,0.4l0.4,1.9c0.1,0.4-0.1,0.7-0.4,0.8c-0.5,0.3-2.5,0.9-4,0.9c-3.2,0-4-2.1-4-4.6V28.8z"
      />
    <path fill="#FFFFFF" d="M215.4,18.7c0-0.3,0.3-0.7,0.7-0.7h2.5c0.4,0,0.7,0.3,0.7,0.7v7.6c0.7-0.6,2-1.2,3.7-1.2
      c4.6,0,5.8,3.2,5.8,6.8V39c0,0.4-0.3,0.7-0.7,0.7h-2.5c-0.4,0-0.7-0.3-0.7-0.7v-7.2c0-2-0.9-3.2-2.6-3.2c-1.7,0-2.6,1.1-3,2.5V39
      c0,0.4-0.2,0.7-0.7,0.7h-2.4c-0.3,0-0.7-0.3-0.7-0.7V18.7z"/>
    <path fill="#FFFFFF" d="M232.4,26.1c0-0.4,0.3-0.7,0.7-0.7h2.5c0.4,0,0.7,0.3,0.7,0.7v7.6c0,1.9,0.7,2.9,2.4,2.9
      c1.6,0,2.3-1.4,2.5-2.7v-7.8c0-0.6,0.2-0.7,0.8-0.7h2.4c0.4,0,0.7,0.3,0.7,0.7v13c0,0.4-0.3,0.7-0.7,0.7h-1.1
      c-0.3,0-0.6-0.2-0.7-0.5l-0.4-1.2c-0.7,0.8-2.2,2.1-4.4,2.1c-4.4,0-5.4-2.8-5.4-6.4V26.1z"/>
    <path fill="#FFFFFF" d="M249,18.7c0-0.3,0.3-0.7,0.7-0.7h2.5c0.4,0,0.7,0.3,0.7,0.7v7c0.7-0.3,2.1-0.6,3.5-0.6
      c4.2,0,6.9,3.3,6.9,7.5c0,4.1-2.8,7.5-6.7,7.5c-3.1,0-4.8-2.1-4.8-2.1l-0.3,1.1c-0.2,0.4-0.4,0.7-0.7,0.7h-1.1
      c-0.3,0-0.7-0.3-0.7-0.7V18.7z M256.1,36.5c2.2,0,3.4-2,3.4-4c0-2-1.2-3.9-3.6-3.9c-1.8,0-3,0.8-3,0.8v5.1
      C253.2,35.3,254.2,36.5,256.1,36.5z"/>
  </g>
  <path fill-rule="evenodd" clip-rule="evenodd" fill="#FFFFFF" d="M33,13.7c-9.3,0-16.8,7.5-16.8,16.8c0,7.4,4.8,13.7,11.5,15.9
    c0.8,0.2,1.1-0.4,1.1-0.8c0-0.4,0-1.5,0-2.8c-4.7,1-5.6-2.2-5.6-2.2c-0.8-1.9-1.9-2.5-1.9-2.5c-1.5-1,0.1-1,0.1-1
    c1.7,0.1,2.6,1.7,2.6,1.7c1.5,2.6,3.9,1.8,4.9,1.4c0.2-1.1,0.6-1.8,1.1-2.2c-3.7-0.4-7.6-1.9-7.6-8.3c0-1.8,0.7-3.3,1.7-4.5
    c-0.2-0.4-0.7-2.1,0.2-4.4c0,0,1.4-0.5,4.6,1.7c1.3-0.4,2.8-0.6,4.2-0.6c1.4,0,2.9,0.2,4.2,0.6c3.2-2.2,4.6-1.7,4.6-1.7
    c0.9,2.3,0.3,4,0.2,4.4c1.1,1.2,1.7,2.7,1.7,4.5c0,6.4-3.9,7.9-7.7,8.3c0.6,0.5,1.1,1.5,1.1,3.1c0,2.2,0,4,0,4.6
    c0,0.4,0.3,1,1.2,0.8c6.7-2.2,11.4-8.5,11.4-15.9C49.8,21.2,42.3,13.7,33,13.7z"/>
</g>
</svg>
