<svg xmlns="http://www.w3.org/2000/svg" width="280" height="60" viewBox="0 0 280 60"><path fill="#3C444B" d="M274 60h-268c-3.3 0-6-2.7-6-6v-48c0-3.3 2.7-6 6-6h268c3.3 0 6 2.7 6 6v48c0 3.3-2.7 6-6 6z"/><g fill="#fff"><path d="M31.973 33.13l-1.556-4.646 4.836-1.62 1.556 4.646zM31.973 33.13l-1.556-4.646 4.836-1.62 1.556 4.646zM50.1 25.1c-3.8-12.4-9.1-15.3-21.5-11.6-12.4 3.7-15.3 9.1-11.5 21.4 3.7 12.4 9.1 15.3 21.4 11.5 12.4-3.6 15.3-9 11.6-21.3zm-6.3 8l-2.3.8.8 2.4c.3 1-.2 2-1.2 2.4-.2.1-.4.1-.6.1-.8 0-1.5-.5-1.7-1.3l-.9-2.5-4.8 1.6.8 2.4c.3 1-.2 2-1.2 2.4-.2.1-.4.1-.6.1-.8 0-1.5-.5-1.7-1.3l-.8-2.4-2.3.8c-.2.1-.4.1-.6.1-.8 0-1.5-.5-1.7-1.3-.3-1 .2-2 1.2-2.4l2.3-.8-1.6-4.6-2.3.8c-.2.1-.4.1-.6.1-.8 0-1.5-.5-1.7-1.3-.3-1 .2-2 1.2-2.4l2.3-.8-.8-2.4c-.3-1 .2-2 1.2-2.4 1-.3 2 .2 2.4 1.2l.8 2.4 4.8-1.6-.8-2.4c-.3-1 .2-2 1.2-2.4 1-.3 2 .2 2.4 1.2l.8 2.4 2.3-.8c1-.3 2 .2 2.4 1.2.3 1-.2 2-1.2 2.4l-2.3.8 1.6 4.6 2.3-.8c1-.3 2 .2 2.4 1.2 0 1.1-.5 2.2-1.5 2.5z"/></g><g fill="#fff"><path d="M61.2 37.4l1.6-1.6c.3-.3.6-.2.9 0 .4.4 1 1 2 1 1.2 0 2.4-.7 2.4-2.7v-14.5c0-.3.2-.6.6-.6h2.8c.3 0 .6.3.6.6v14.4c0 4.2-2.8 6.3-6.3 6.3-2.6 0-4-1.6-4.6-2.2-.2-.2-.2-.5 0-.7zM82 25.8c3.9 0 7.1 3.3 7.1 7.2 0 4-3.2 7.3-7.1 7.3-3.9 0-7.1-3.3-7.1-7.3 0-3.9 3.2-7.2 7.1-7.2zm0 11.1c2 0 3.6-1.7 3.6-3.9 0-2.1-1.6-3.8-3.6-3.8s-3.6 1.7-3.6 3.8c0 2.2 1.6 3.9 3.6 3.9zM91.5 21.4c0-1.3 1-2.4 2.4-2.4 1.3 0 2.4 1 2.4 2.4 0 1.3-1.1 2.4-2.4 2.4-1.4 0-2.4-1.1-2.4-2.4zm.6 5.4c0-.4.3-.7.7-.7h2.4c.3 0 .7.3.7.7v12.5c0 .4-.3.7-.7.7h-2.4c-.3 0-.7-.3-.7-.7v-12.5zM99.6 26.8c0-.4.3-.7.7-.7h1.1c.3 0 .5.1.6.4l.5 1.3c.5-.6 1.8-2 4.5-2 4.4 0 5.5 3 5.5 6.3v7.2c0 .4-.3.7-.7.7h-2.4c-.4 0-.7-.3-.7-.7v-7.2c0-1.8-.7-2.9-2.4-2.9-1.8 0-2.7 1.2-3 2.2v7.9c0 .5-.2.7-.9.7h-2.2c-.3 0-.7-.3-.7-.7v-12.5zM123.2 38c-.3-.2-.4-.4-.2-.9l1.1-1.9c.2-.4.8-.4 1-.2 1.2.9 2.6 1.9 4.5 1.9 1.6 0 2.7-1 2.7-2.3 0-1.5-1.3-2.6-3.8-3.6-2.8-1.1-5.6-2.9-5.6-6.5 0-2.7 2-5.8 6.7-5.8 3.1 0 5.4 1.6 6 2 .3.2.4.7.2 1l-1.1 1.7c-.2.4-.7.6-1 .4-1.3-.8-2.5-1.6-4.2-1.6-1.7 0-2.6 1-2.6 2.1 0 1.4 1.1 2.4 3.5 3.4 2.9 1.2 6.3 2.9 6.3 6.8 0 3.1-2.7 5.9-6.9 5.9-3.8-.1-5.7-1.7-6.6-2.4zM139.5 19.7c0-.3.3-.7.7-.7h2.4c.3 0 .7.3.7.7v19.7c0 .4-.3.7-.7.7h-2.4c-.3 0-.7-.3-.7-.7v-19.7zM151.7 31.2c1.4 0 2.7.4 2.7.4.1-1.8-.4-2.6-1.9-2.6-1.3 0-3.1.3-3.9.5-.5.2-.7-.2-.8-.6l-.3-1.6c-.1-.5.1-.8.4-.8.3-.1 2.5-.7 4.7-.7 4.3 0 5.2 2.2 5.2 6v7.5c0 .4-.3.7-.7.7h-1c-.2 0-.4-.1-.6-.5l-.4-.9c-.8.8-2.2 1.7-4.4 1.7-2.8 0-4.7-1.8-4.7-4.7.2-2.5 2.2-4.4 5.7-4.4zm.1 6.3c1.2 0 2.3-1 2.5-1.5v-2s-.9-.4-2-.4c-1.6 0-2.5.8-2.5 2s.7 1.9 2 1.9zM168.1 25.8c2.2 0 3.8.9 5.2 2.3.3.3.1.7-.1 1l-1.3 1.4c-.3.3-.6.2-.9-.1-.7-.6-1.5-1.2-2.8-1.2-2.2 0-3.7 1.7-3.7 3.8 0 2.2 1.5 3.8 3.6 3.8 1.5 0 2.3-.8 2.9-1.5.2-.2.6-.3.9-.1l1.4 1.1c.3.3.5.6.2 1-1.2 1.8-3 2.9-5.5 2.9-4.1 0-7.3-3.1-7.3-7.3.1-3.9 3.3-7.1 7.4-7.1zM176.4 19.7c0-.3.3-.7.7-.7h2.4c.4 0 .7.3.7.7v11.7l4.8-4.8c.2-.2.5-.4.9-.4h2.8c.6 0 .8.6.5 1l-5.5 5.4 5.8 6.4c.4.4.1 1-.4 1h-2.9c-.2 0-.5-.1-.6-.3l-5.2-6.2v5.8c0 .4-.3.7-.7.7h-2.7c-.3 0-.7-.3-.7-.7v-19.6zM202.2 22.6h-4.6c-.3 0-.6-.3-.6-.6v-2.5c0-.3.2-.6.6-.6h13.1c.3 0 .6.3.6.6v2.5c0 .3-.2.6-.6.6h-4.6v16.8c0 .3-.3.6-.6.6h-2.8c-.3 0-.6-.3-.6-.6v-16.8zM217.7 25.8c3.6 0 6.4 2.7 6.4 6.4 0 .2 0 .7-.1.9 0 .4-.4.6-.7.6h-8.9c0 1.7 1.4 3.2 3.5 3.2 1.4 0 2.3-.5 3-1 .3-.3.7-.3.9 0l1.2 1.6c.2.3.3.6-.1.9-1.2 1-2.9 1.9-5.2 1.9-4.1 0-7-3.3-7-7.3 0-3.8 2.9-7.2 7-7.2zm2.6 5.5c-.1-1.4-1.1-2.4-2.7-2.4-1.7 0-2.8 1-2.9 2.4h5.6zM231.4 31.2c1.4 0 2.7.4 2.7.4.1-1.8-.4-2.6-1.9-2.6-1.3 0-3.1.3-3.9.5-.5.2-.7-.2-.8-.6l-.3-1.6c-.1-.5.1-.8.4-.8.3-.1 2.5-.7 4.7-.7 4.3 0 5.2 2.2 5.2 6v7.5c0 .4-.3.7-.7.7h-1c-.2 0-.4-.1-.6-.5l-.4-.9c-.8.8-2.2 1.7-4.4 1.7-2.8 0-4.7-1.8-4.7-4.7.2-2.5 2.2-4.4 5.7-4.4zm.1 6.3c1.2 0 2.3-1 2.5-1.5v-2s-.9-.4-2-.4c-1.6 0-2.5.8-2.5 2s.7 1.9 2 1.9zM241.3 26.8c0-.4.3-.7.7-.7h1.1c.3 0 .5.1.6.4l.5 1.3c.6-.7 1.8-2 4.2-2 2 0 3 .7 4.1 2.1.6-.6 2-2.1 4.5-2.1 4.4 0 5.5 2.8 5.5 6.4v7.1c0 .4-.3.7-.7.7h-2.4c-.4 0-.7-.3-.7-.7v-7.2c0-1.8-.7-2.9-2.4-2.9-2 0-2.6 1.4-2.6 1.4s.1.7.1 1.3v7.3c0 .4-.3.7-.7.7h-2.5c-.4 0-.7-.3-.7-.7v-7.2c0-1.8-.5-2.9-2.3-2.9-1.7 0-2.3 1.2-2.7 2.2v7.9c0 .4-.3.7-.7.7h-2.2c-.3 0-.7-.3-.7-.7v-12.4z"/></g></svg>