<!-- Generator: Adobe Illustrator 19.0.1, SVG Export Plug-In  -->
<svg version="1.1"
   xmlns="http://www.w3.org/2000/svg" xmlns:xlink="http://www.w3.org/1999/xlink" xmlns:a="http://ns.adobe.com/AdobeSVGViewerExtensions/3.0/"
   x="0px" y="0px" width="280px" height="60px" viewBox="0 0 280 60" enable-background="new 0 0 280 60" xml:space="preserve">
<defs>
</defs>
<g>
  <path fill="#3C444B" d="M274,60H6c-3.3,0-6-2.7-6-6V6c0-3.3,2.7-6,6-6h268c3.3,0,6,2.7,6,6v48C280,57.3,277.3,60,274,60z"/>
  <g>

      <rect x="31.1" y="27.5" transform="matrix(-0.3176 -0.9482 0.9482 -0.3176 15.7752 71.3528)" fill="#FFFFFF" width="4.9" height="5.1"/>
    <g>

        <rect x="31.1" y="27.5" transform="matrix(-0.3176 -0.9482 0.9482 -0.3176 15.7752 71.3528)" fill="#FFFFFF" width="4.9" height="5.1"/>
      <path fill="#FFFFFF" d="M50.1,25.1C46.3,12.7,41,9.8,28.6,13.5c-12.4,3.7-15.3,9.1-11.5,21.4c3.7,12.4,9.1,15.3,21.4,11.5
        C50.9,42.8,53.8,37.4,50.1,25.1z M43.8,33.1l-2.3,0.8l0.8,2.4c0.3,1-0.2,2-1.2,2.4c-0.2,0.1-0.4,0.1-0.6,0.1
        c-0.8,0-1.5-0.5-1.7-1.3L37.9,35l-4.8,1.6l0.8,2.4c0.3,1-0.2,2-1.2,2.4c-0.2,0.1-0.4,0.1-0.6,0.1c-0.8,0-1.5-0.5-1.7-1.3
        l-0.8-2.4l-2.3,0.8c-0.2,0.1-0.4,0.1-0.6,0.1c-0.8,0-1.5-0.5-1.7-1.3c-0.3-1,0.2-2,1.2-2.4l2.3-0.8l-1.6-4.6l-2.3,0.8
        c-0.2,0.1-0.4,0.1-0.6,0.1c-0.8,0-1.5-0.5-1.7-1.3c-0.3-1,0.2-2,1.2-2.4l2.3-0.8l-0.8-2.4c-0.3-1,0.2-2,1.2-2.4
        c1-0.3,2,0.2,2.4,1.2l0.8,2.4l4.8-1.6l-0.8-2.4c-0.3-1,0.2-2,1.2-2.4c1-0.3,2,0.2,2.4,1.2l0.8,2.4l2.3-0.8c1-0.3,2,0.2,2.4,1.2
        c0.3,1-0.2,2-1.2,2.4l-2.3,0.8l1.6,4.6l2.3-0.8c1-0.3,2,0.2,2.4,1.2C45.3,31.7,44.8,32.8,43.8,33.1z"/>
    </g>
  </g>
  <g>
    <path fill="#FFFFFF" d="M61.2,37.4l1.6-1.6c0.3-0.3,0.6-0.2,0.9,0c0.4,0.4,1,1,2,1c1.2,0,2.4-0.7,2.4-2.7V19.6
      c0-0.3,0.2-0.6,0.6-0.6h2.8c0.3,0,0.6,0.3,0.6,0.6V34c0,4.2-2.8,6.3-6.3,6.3c-2.6,0-4-1.6-4.6-2.2C61,37.9,61,37.6,61.2,37.4z"/>
    <path fill="#FFFFFF" d="M82,25.8c3.9,0,7.1,3.3,7.1,7.2c0,4-3.2,7.3-7.1,7.3c-3.9,0-7.1-3.3-7.1-7.3C74.9,29.1,78.1,25.8,82,25.8z
       M82,36.9c2,0,3.6-1.7,3.6-3.9c0-2.1-1.6-3.8-3.6-3.8s-3.6,1.7-3.6,3.8C78.4,35.2,80,36.9,82,36.9z"/>
    <path fill="#FFFFFF" d="M91.5,21.4c0-1.3,1-2.4,2.4-2.4c1.3,0,2.4,1,2.4,2.4c0,1.3-1.1,2.4-2.4,2.4C92.5,23.8,91.5,22.7,91.5,21.4
      z M92.1,26.8c0-0.4,0.3-0.7,0.7-0.7h2.4c0.3,0,0.7,0.3,0.7,0.7v12.5c0,0.4-0.3,0.7-0.7,0.7h-2.4c-0.3,0-0.7-0.3-0.7-0.7V26.8z"/>
    <path fill="#FFFFFF" d="M99.6,26.8c0-0.4,0.3-0.7,0.7-0.7h1.1c0.3,0,0.5,0.1,0.6,0.4l0.5,1.3c0.5-0.6,1.8-2,4.5-2
      c4.4,0,5.5,3,5.5,6.3v7.2c0,0.4-0.3,0.7-0.7,0.7h-2.4c-0.4,0-0.7-0.3-0.7-0.7v-7.2c0-1.8-0.7-2.9-2.4-2.9c-1.8,0-2.7,1.2-3,2.2
      v7.9c0,0.5-0.2,0.7-0.9,0.7h-2.2c-0.3,0-0.7-0.3-0.7-0.7V26.8z"/>
    <path fill="#FFFFFF" d="M123.2,38c-0.3-0.2-0.4-0.4-0.2-0.9l1.1-1.9c0.2-0.4,0.8-0.4,1-0.2c1.2,0.9,2.6,1.9,4.5,1.9
      c1.6,0,2.7-1,2.7-2.3c0-1.5-1.3-2.6-3.8-3.6c-2.8-1.1-5.6-2.9-5.6-6.5c0-2.7,2-5.8,6.7-5.8c3.1,0,5.4,1.6,6,2
      c0.3,0.2,0.4,0.7,0.2,1l-1.1,1.7c-0.2,0.4-0.7,0.6-1,0.4c-1.3-0.8-2.5-1.6-4.2-1.6c-1.7,0-2.6,1-2.6,2.1c0,1.4,1.1,2.4,3.5,3.4
      c2.9,1.2,6.3,2.9,6.3,6.8c0,3.1-2.7,5.9-6.9,5.9C126,40.3,124.1,38.7,123.2,38z"/>
    <path fill="#FFFFFF" d="M139.5,19.7c0-0.3,0.3-0.7,0.7-0.7h2.4c0.3,0,0.7,0.3,0.7,0.7v19.7c0,0.4-0.3,0.7-0.7,0.7h-2.4
      c-0.3,0-0.7-0.3-0.7-0.7V19.7z"/>
    <path fill="#FFFFFF" d="M151.7,31.2c1.4,0,2.7,0.4,2.7,0.4c0.1-1.8-0.4-2.6-1.9-2.6c-1.3,0-3.1,0.3-3.9,0.5
      c-0.5,0.2-0.7-0.2-0.8-0.6l-0.3-1.6c-0.1-0.5,0.1-0.8,0.4-0.8c0.3-0.1,2.5-0.7,4.7-0.7c4.3,0,5.2,2.2,5.2,6v7.5
      c0,0.4-0.3,0.7-0.7,0.7h-1c-0.2,0-0.4-0.1-0.6-0.5l-0.4-0.9c-0.8,0.8-2.2,1.7-4.4,1.7c-2.8,0-4.7-1.8-4.7-4.7
      C146.2,33.1,148.2,31.2,151.7,31.2z M151.8,37.5c1.2,0,2.3-1,2.5-1.5v-2c0,0-0.9-0.4-2-0.4c-1.6,0-2.5,0.8-2.5,2
      C149.8,36.8,150.5,37.5,151.8,37.5z"/>
    <path fill="#FFFFFF" d="M168.1,25.8c2.2,0,3.8,0.9,5.2,2.3c0.3,0.3,0.1,0.7-0.1,1l-1.3,1.4c-0.3,0.3-0.6,0.2-0.9-0.1
      c-0.7-0.6-1.5-1.2-2.8-1.2c-2.2,0-3.7,1.7-3.7,3.8c0,2.2,1.5,3.8,3.6,3.8c1.5,0,2.3-0.8,2.9-1.5c0.2-0.2,0.6-0.3,0.9-0.1l1.4,1.1
      c0.3,0.3,0.5,0.6,0.2,1c-1.2,1.8-3,2.9-5.5,2.9c-4.1,0-7.3-3.1-7.3-7.3C160.8,29,164,25.8,168.1,25.8z"/>
    <path fill="#FFFFFF" d="M176.4,19.7c0-0.3,0.3-0.7,0.7-0.7h2.4c0.4,0,0.7,0.3,0.7,0.7v11.7l4.8-4.8c0.2-0.2,0.5-0.4,0.9-0.4h2.8
      c0.6,0,0.8,0.6,0.5,1l-5.5,5.4l5.8,6.4c0.4,0.4,0.1,1-0.4,1h-2.9c-0.2,0-0.5-0.1-0.6-0.3l-5.2-6.2v5.8c0,0.4-0.3,0.7-0.7,0.7H177
      c-0.3,0-0.7-0.3-0.7-0.7V19.7z"/>
    <path fill="#FFFFFF" d="M202.2,22.6h-4.6c-0.3,0-0.6-0.3-0.6-0.6v-2.5c0-0.3,0.2-0.6,0.6-0.6h13.1c0.3,0,0.6,0.3,0.6,0.6V22
      c0,0.3-0.2,0.6-0.6,0.6h-4.6v16.8c0,0.3-0.3,0.6-0.6,0.6h-2.8c-0.3,0-0.6-0.3-0.6-0.6V22.6z"/>
    <path fill="#FFFFFF" d="M217.7,25.8c3.6,0,6.4,2.7,6.4,6.4c0,0.2,0,0.7-0.1,0.9c0,0.4-0.4,0.6-0.7,0.6h-8.9c0,1.7,1.4,3.2,3.5,3.2
      c1.4,0,2.3-0.5,3-1c0.3-0.3,0.7-0.3,0.9,0l1.2,1.6c0.2,0.3,0.3,0.6-0.1,0.9c-1.2,1-2.9,1.9-5.2,1.9c-4.1,0-7-3.3-7-7.3
      C210.7,29.2,213.6,25.8,217.7,25.8z M220.3,31.3c-0.1-1.4-1.1-2.4-2.7-2.4c-1.7,0-2.8,1-2.9,2.4H220.3z"/>
    <path fill="#FFFFFF" d="M231.4,31.2c1.4,0,2.7,0.4,2.7,0.4c0.1-1.8-0.4-2.6-1.9-2.6c-1.3,0-3.1,0.3-3.9,0.5
      c-0.5,0.2-0.7-0.2-0.8-0.6l-0.3-1.6c-0.1-0.5,0.1-0.8,0.4-0.8c0.3-0.1,2.5-0.7,4.7-0.7c4.3,0,5.2,2.2,5.2,6v7.5
      c0,0.4-0.3,0.7-0.7,0.7h-1c-0.2,0-0.4-0.1-0.6-0.5l-0.4-0.9c-0.8,0.8-2.2,1.7-4.4,1.7c-2.8,0-4.7-1.8-4.7-4.7
      C225.9,33.1,227.9,31.2,231.4,31.2z M231.5,37.5c1.2,0,2.3-1,2.5-1.5v-2c0,0-0.9-0.4-2-0.4c-1.6,0-2.5,0.8-2.5,2
      C229.5,36.8,230.2,37.5,231.5,37.5z"/>
    <path fill="#FFFFFF" d="M241.3,26.8c0-0.4,0.3-0.7,0.7-0.7h1.1c0.3,0,0.5,0.1,0.6,0.4l0.5,1.3c0.6-0.7,1.8-2,4.2-2
      c2,0,3,0.7,4.1,2.1c0.6-0.6,2-2.1,4.5-2.1c4.4,0,5.5,2.8,5.5,6.4v7.1c0,0.4-0.3,0.7-0.7,0.7h-2.4c-0.4,0-0.7-0.3-0.7-0.7v-7.2
      c0-1.8-0.7-2.9-2.4-2.9c-2,0-2.6,1.4-2.6,1.4s0.1,0.7,0.1,1.3v7.3c0,0.4-0.3,0.7-0.7,0.7h-2.5c-0.4,0-0.7-0.3-0.7-0.7v-7.2
      c0-1.8-0.5-2.9-2.3-2.9c-1.7,0-2.3,1.2-2.7,2.2v7.9c0,0.4-0.3,0.7-0.7,0.7H242c-0.3,0-0.7-0.3-0.7-0.7V26.8z"/>
  </g>
</g>
</svg>
