<svg xmlns="http://www.w3.org/2000/svg" width="145" height="29.9" viewBox="0 0 145 29.9"><path d="M13.3 17.9c0 3.9-3 5.8-6.2 5.8-2.7 0-5.5-1.3-7.2-2.5l1-1.6c1.7 1.1 4 2.2 6.1 2.2 2.1 0 4.2-1.2 4.2-3.9 0-2.8-2.4-4.1-5.5-5.5-2.6-1.2-5.4-2.7-5.4-6.3 0-3.6 2.7-5.5 5.9-5.5 2.2 0 4.7.9 6.3 1.9l-1 1.6c-1.5-1-3.6-1.7-5.1-1.7-2 0-3.9 1.1-3.9 3.6 0 2.7 2.2 3.6 4.9 4.9 2.6 1.3 5.9 2.9 5.9 7zM15.7 6.5h1.9v-4.2l1.9-.7v4.9h3.8v1.6h-3.8v11.9c0 1.4.5 1.9 1.3 1.9s2.1-.6 2.7-.9l.8 1.5c-.6.3-2.2 1.1-3.7 1.1-1.6 0-2.9-.8-2.9-3.7v-11.8h-1.9v-1.6zM27.8 6.5l4.4 14.3 4.4-14.3h2.1l-7.7 23.3h-2.1l2.4-6.5-5.6-16.8h2.1zM42.1 23.3v-23.3h1.9v23.3h-1.9zM50.2 15.5c.2 4 1.7 6.5 4.1 6.5 1.9 0 3.8-1.4 5-2.3l1 1.3c-1.3.9-3.6 2.6-6.2 2.6-3.3 0-6-3-6-8.8 0-5.7 2.7-8.7 6.3-8.7 3.7 0 5.7 3.1 5.7 7.2 0 1.2-.2 2.1-.2 2.1h-9.7zm0-1.4h8.1c.1-4.4-1.4-6.3-3.8-6.3-2.6 0-4.1 2.4-4.3 6.3zM74.2 19.3c0 2.9-2.3 4.4-4.9 4.4-2.3 0-4.6-1.1-6-2l1-1.5c1.3.8 3.3 1.8 5 1.8 1.5 0 3.1-.9 3.1-2.7 0-2.2-2.2-3-4.1-3.7-2-.8-4.6-1.8-4.6-5 0-2.8 2-4.4 4.8-4.4 2 0 4 .9 5.3 1.7l-1 1.4c-1.2-.7-2.8-1.4-4.3-1.4-1.6 0-2.9.9-2.9 2.6 0 2.3 2.4 2.9 3.7 3.4 3 1.1 4.9 2.7 4.9 5.4zM79.9 9c1.1-1 3.4-2.8 5.8-2.8 2.9 0 3.8 2.2 3.8 4.7v12.4h-2v-12.1c0-1.8-.5-3.3-2.4-3.3-2.1 0-4.4 2-5.2 3v12.4h-1.9v-23.3h1.9v9zM95.5 15.5c.2 4 1.7 6.5 4.1 6.5 1.9 0 3.8-1.4 5-2.3l1 1.3c-1.3.9-3.6 2.6-6.2 2.6-3.3 0-6-3-6-8.8 0-5.7 2.7-8.7 6.3-8.7 3.7 0 5.7 3.1 5.7 7.2 0 1.2-.2 2.1-.2 2.1h-9.7zm0-1.4h8.1c.1-4.4-1.4-6.3-3.8-6.3-2.6 0-4.1 2.4-4.3 6.3zM110.8 15.5c.2 4 1.7 6.5 4.1 6.5 1.9 0 3.8-1.4 5-2.3l1 1.3c-1.3.9-3.6 2.6-6.2 2.6-3.3 0-6-3-6-8.8 0-5.7 2.7-8.7 6.3-8.7 3.7 0 5.7 3.1 5.7 7.2 0 1.2-.2 2.1-.2 2.1h-9.7zm0-1.4h8.1c.1-4.4-1.4-6.3-3.8-6.3-2.6 0-4.1 2.4-4.3 6.3zM123.5 6.5h1.9v-4.2l1.9-.7v4.9h3.8v1.6h-3.8v11.9c0 1.4.5 1.9 1.3 1.9s2.1-.6 2.7-.9l.8 1.5c-.6.3-2.2 1.1-3.7 1.1-1.6 0-2.9-.8-2.9-3.7v-11.8h-1.9v-1.6zM145 19.3c0 2.9-2.3 4.4-4.9 4.4-2.3 0-4.6-1.1-6-2l1-1.5c1.3.8 3.3 1.8 5 1.8 1.5 0 3.1-.9 3.1-2.7 0-2.2-2.2-3-4.1-3.7-2-.8-4.6-1.8-4.6-5 0-2.8 2-4.4 4.8-4.4 2 0 4 .9 5.3 1.7l-1 1.4c-1.2-.7-2.8-1.4-4.3-1.4-1.6 0-2.9.9-2.9 2.6 0 2.3 2.4 2.9 3.7 3.4 2.9 1.1 4.9 2.7 4.9 5.4z"/></svg>