<!-- Generator: Adobe Illustrator 19.0.1, SVG Export Plug-In  -->
<svg version="1.1"
   xmlns="http://www.w3.org/2000/svg" xmlns:xlink="http://www.w3.org/1999/xlink" xmlns:a="http://ns.adobe.com/AdobeSVGViewerExtensions/3.0/"
   x="0px" y="0px" width="280px" height="60px" viewBox="0 0 280 60" enable-background="new 0 0 280 60" xml:space="preserve">
<defs>
</defs>
<g>
  <path fill="#4BAAF4" d="M274,60H6c-3.3,0-6-2.7-6-6V6c0-3.3,2.7-6,6-6h268c3.3,0,6,2.7,6,6v48C280,57.3,277.3,60,274,60z"/>
  <g>
    <path fill="#FFFFFF" d="M60.7,38.3c-0.3-0.2-0.4-0.4-0.1-0.9l1-1.8c0.2-0.4,0.7-0.4,1-0.2c1.2,0.9,2.5,1.8,4.4,1.8
      c1.5,0,2.6-1,2.6-2.2c0-1.5-1.2-2.5-3.7-3.5c-2.7-1.1-5.5-2.8-5.5-6.3c0-2.6,1.9-5.6,6.5-5.6c3,0,5.2,1.5,5.8,1.9
      c0.3,0.2,0.4,0.7,0.2,1l-1.1,1.7c-0.2,0.3-0.7,0.6-1,0.3c-1.2-0.8-2.4-1.6-4-1.6c-1.7,0-2.6,0.9-2.6,2c0,1.4,1.1,2.3,3.4,3.2
      c2.8,1.1,6.1,2.8,6.1,6.6c0,3-2.6,5.7-6.7,5.7C63.4,40.6,61.5,39.1,60.7,38.3z"/>
    <path fill="#FFFFFF" d="M76.5,20.6c0-0.3,0.3-0.6,0.6-0.6h2.3c0.3,0,0.6,0.3,0.6,0.6v7.1c0.7-0.6,1.8-1.1,3.4-1.1
      c4.3,0,5.4,3,5.4,6.3v6.7c0,0.3-0.3,0.6-0.6,0.6h-2.3c-0.3,0-0.6-0.3-0.6-0.6v-6.8c0-1.9-0.8-3-2.4-3c-1.6,0-2.4,1-2.8,2.3v7.4
      c0,0.4-0.2,0.6-0.7,0.6h-2.3c-0.3,0-0.6-0.3-0.6-0.6V20.6z"/>
    <path fill="#FFFFFF" d="M96.9,31.8c1.4,0,2.6,0.4,2.6,0.4c0.1-1.7-0.4-2.5-1.9-2.5c-1.2,0-3,0.3-3.8,0.5c-0.4,0.1-0.7-0.2-0.8-0.6
      l-0.3-1.5c-0.1-0.5,0.1-0.7,0.4-0.8c0.3-0.1,2.4-0.7,4.6-0.7c4.2,0,5,2.2,5,5.8v7.2c0,0.3-0.3,0.6-0.6,0.6h-1
      c-0.2,0-0.4-0.1-0.6-0.5l-0.4-0.9c-0.8,0.8-2.1,1.7-4.2,1.7c-2.7,0-4.5-1.7-4.5-4.6C91.5,33.7,93.5,31.8,96.9,31.8z M97,37.9
      c1.2,0,2.2-0.9,2.4-1.4v-2c0,0-0.9-0.4-2-0.4c-1.5,0-2.4,0.7-2.4,1.9C95,37.2,95.7,37.9,97,37.9z"/>
    <path fill="#FFFFFF" d="M106.4,27.5c0-0.4,0.3-0.6,0.6-0.6h1.1c0.3,0,0.5,0.1,0.6,0.4l0.5,1.3c0.5-0.7,1.7-2,3.8-2
      c1.6,0,2.9,0.4,2.5,1.3l-0.9,2c-0.1,0.3-0.5,0.4-0.8,0.3c-0.3-0.1-0.6-0.3-1.2-0.3c-1.5,0-2.3,0.9-2.6,1.4v8.4
      c0,0.5-0.3,0.6-0.8,0.6h-2.2c-0.3,0-0.6-0.3-0.6-0.6V27.5z"/>
    <path fill="#FFFFFF" d="M123.3,26.6c3.5,0,6.2,2.6,6.2,6.2c0,0.2,0,0.7-0.1,0.9c0,0.3-0.3,0.6-0.6,0.6h-8.6c0,1.7,1.4,3.1,3.3,3.1
      c1.3,0,2.3-0.5,2.9-1c0.3-0.3,0.7-0.3,0.9,0l1.1,1.5c0.2,0.3,0.3,0.6-0.1,0.9c-1.2,1-2.8,1.8-5,1.8c-4,0-6.8-3.2-6.8-7
      C116.5,29.8,119.3,26.6,123.3,26.6z M125.8,31.9c-0.1-1.3-1.1-2.3-2.6-2.3c-1.6,0-2.7,1-2.8,2.3H125.8z"/>
    <path fill="#FFFFFF" d="M145.1,26.6c3.8,0,6.9,3.2,6.9,7c0,3.8-3.1,7-6.9,7c-3.8,0-6.8-3.2-6.8-7
      C138.3,29.8,141.4,26.6,145.1,26.6z M145.1,37.3c1.9,0,3.5-1.7,3.5-3.7c0-2-1.6-3.7-3.5-3.7c-1.9,0-3.5,1.6-3.5,3.7
      C141.6,35.6,143.2,37.3,145.1,37.3z"/>
    <path fill="#FFFFFF" d="M154.9,27.5c0-0.4,0.3-0.6,0.6-0.6h1.1c0.3,0,0.5,0.1,0.6,0.4l0.5,1.2c0.5-0.6,1.7-1.9,4.3-1.9
      c4.3,0,5.4,2.9,5.4,6.1v6.9c0,0.3-0.3,0.6-0.6,0.6h-2.3c-0.3,0-0.6-0.3-0.6-0.6v-6.9c0-1.7-0.7-2.8-2.3-2.8
      c-1.7,0-2.6,1.2-2.9,2.1v7.7c0,0.5-0.2,0.6-0.8,0.6h-2.1c-0.3,0-0.6-0.3-0.6-0.6V27.5z"/>
    <path fill="#FFFFFF" d="M180.9,23.5h-4.4c-0.3,0-0.6-0.3-0.6-0.6v-2.4c0-0.3,0.2-0.6,0.6-0.6h12.7c0.3,0,0.6,0.3,0.6,0.6v2.4
      c0,0.3-0.2,0.6-0.6,0.6h-4.4v16.3c0,0.3-0.3,0.6-0.6,0.6h-2.7c-0.3,0-0.6-0.3-0.6-0.6V23.5z"/>
    <path fill="#FFFFFF" d="M189.1,27.7c-0.2-0.4,0.1-0.8,0.6-0.8h2.3c0.2,0,0.5,0.1,0.6,0.4l2,6.4h0l3.5-6.8c0.1-0.1,0.2-0.3,0.5-0.3
      h0.3c0.3,0,0.5,0.1,0.6,0.3l3.5,6.8h0l2-6.4c0.1-0.4,0.4-0.4,0.8-0.4h2c0.5,0,0.8,0.3,0.6,0.8l-4.1,12.6c-0.1,0.2-0.3,0.4-0.6,0.4
      h-0.1c-0.3,0-0.4-0.1-0.6-0.3l-4.2-8.1h0l-4.2,8.1c-0.1,0.2-0.3,0.3-0.5,0.3h-0.2c-0.3,0-0.5-0.2-0.6-0.4L189.1,27.7z"/>
    <path fill="#FFFFFF" d="M210.3,22.3c0-1.3,1-2.3,2.3-2.3s2.3,1,2.3,2.3s-1,2.3-2.3,2.3S210.3,23.6,210.3,22.3z M210.8,27.5
      c0-0.4,0.3-0.6,0.6-0.6h2.3c0.3,0,0.6,0.3,0.6,0.6v12.1c0,0.3-0.3,0.6-0.6,0.6h-2.3c-0.3,0-0.6-0.3-0.6-0.6V27.5z"/>
    <path fill="#FFFFFF" d="M219.1,30.2h-1.3c-0.3,0-0.6-0.3-0.6-0.6v-2c0-0.4,0.3-0.6,0.6-0.6h1.3v-3.7c0-0.3,0.3-0.6,0.6-0.6h2.4
      c0.3,0,0.6,0.3,0.6,0.6v3.7h3.1c0.3,0,0.6,0.3,0.6,0.6v2c0,0.3-0.3,0.6-0.6,0.6h-3.1v6c0,0.9,0.4,1.1,1.1,1.1c0.6,0,1.7-0.3,2-0.4
      c0.4-0.1,0.7,0,0.8,0.3L227,39c0.1,0.3-0.1,0.6-0.4,0.8c-0.5,0.3-2.4,0.9-3.8,0.9c-3,0-3.7-2-3.7-4.3V30.2z"/>
    <path fill="#FFFFFF" d="M230.4,30.2h-1.3c-0.3,0-0.6-0.3-0.6-0.6v-2c0-0.4,0.3-0.6,0.6-0.6h1.3v-3.7c0-0.3,0.3-0.6,0.6-0.6h2.4
      c0.3,0,0.6,0.3,0.6,0.6v3.7h3.1c0.3,0,0.6,0.3,0.6,0.6v2c0,0.3-0.3,0.6-0.6,0.6H234v6c0,0.9,0.4,1.1,1.1,1.1c0.6,0,1.7-0.3,2-0.4
      c0.4-0.1,0.7,0,0.8,0.3l0.4,1.8c0.1,0.3-0.1,0.6-0.4,0.8c-0.5,0.3-2.4,0.9-3.8,0.9c-3,0-3.7-2-3.7-4.3V30.2z"/>
    <path fill="#FFFFFF" d="M246.7,26.6c3.5,0,6.1,2.6,6.1,6.2c0,0.2,0,0.7-0.1,0.9c0,0.3-0.3,0.6-0.6,0.6h-8.6c0,1.7,1.4,3.1,3.3,3.1
      c1.3,0,2.3-0.5,2.9-1c0.3-0.3,0.7-0.3,0.9,0l1.1,1.5c0.2,0.3,0.3,0.6-0.1,0.9c-1.2,1-2.8,1.8-5,1.8c-4,0-6.8-3.2-6.8-7
      C240,29.8,242.8,26.6,246.7,26.6z M249.2,31.9c-0.1-1.3-1.1-2.3-2.6-2.3c-1.6,0-2.7,1-2.8,2.3H249.2z"/>
    <path fill="#FFFFFF" d="M255.6,27.5c0-0.4,0.3-0.6,0.6-0.6h1.1c0.3,0,0.5,0.1,0.6,0.4l0.5,1.3c0.5-0.7,1.7-2,3.8-2
      c1.6,0,2.9,0.4,2.5,1.3l-0.9,2c-0.1,0.3-0.5,0.4-0.8,0.3c-0.3-0.1-0.6-0.3-1.2-0.3c-1.5,0-2.3,0.9-2.6,1.4v8.4
      c0,0.5-0.3,0.6-0.8,0.6h-2.2c-0.3,0-0.6-0.3-0.6-0.6V27.5z"/>
  </g>
  <path fill="#FFFFFF" d="M50.5,19.1c-1.3,0.6-2.7,1-4.1,1.1c1.5-0.9,2.6-2.3,3.2-4c-1.4,0.8-2.9,1.4-4.6,1.7
    c-1.3-1.4-3.2-2.3-5.2-2.3c-4,0-7.2,3.2-7.2,7.2c0,0.6,0.1,1.1,0.2,1.6c-6-0.3-11.3-3.2-14.8-7.5c-0.6,1.1-1,2.3-1,3.6
    c0,2.5,1.3,4.7,3.2,6c-1.2,0-2.3-0.4-3.3-0.9c0,0,0,0.1,0,0.1c0,3.5,2.5,6.4,5.8,7c-0.6,0.2-1.2,0.3-1.9,0.3c-0.5,0-0.9,0-1.4-0.1
    c0.9,2.9,3.6,4.9,6.7,5c-2.5,1.9-5.6,3.1-8.9,3.1c-0.6,0-1.2,0-1.7-0.1c3.2,2,7,3.2,11,3.2c13.2,0,20.4-10.9,20.4-20.4
    c0-0.3,0-0.6,0-0.9C48.3,21.8,49.5,20.6,50.5,19.1z"/>
</g>
</svg>
