<svg xmlns="http://www.w3.org/2000/svg" width="280" height="60" viewBox="0 0 280 60"><path fill="#4BAAF4" d="M274 60h-268c-3.3 0-6-2.7-6-6v-48c0-3.3 2.7-6 6-6h268c3.3 0 6 2.7 6 6v48c0 3.3-2.7 6-6 6z"/><g fill="#fff"><path d="M60.7 38.3c-.3-.2-.4-.4-.1-.9l1-1.8c.2-.4.7-.4 1-.2 1.2.9 2.5 1.8 4.4 1.8 1.5 0 2.6-1 2.6-2.2 0-1.5-1.2-2.5-3.7-3.5-2.7-1.1-5.5-2.8-5.5-6.3 0-2.6 1.9-5.6 6.5-5.6 3 0 5.2 1.5 5.8 1.9.3.2.4.7.2 1l-1.1 1.7c-.2.3-.7.6-1 .3-1.2-.8-2.4-1.6-4-1.6-1.7 0-2.6.9-2.6 2 0 1.4 1.1 2.3 3.4 3.2 2.8 1.1 6.1 2.8 6.1 6.6 0 3-2.6 5.7-6.7 5.7-3.6.2-5.5-1.3-6.3-2.1zM76.5 20.6c0-.3.3-.6.6-.6h2.3c.3 0 .6.3.6.6v7.1c.7-.6 1.8-1.1 3.4-1.1 4.3 0 5.4 3 5.4 6.3v6.7c0 .3-.3.6-.6.6h-2.3c-.3 0-.6-.3-.6-.6v-6.8c0-1.9-.8-3-2.4-3-1.6 0-2.4 1-2.8 2.3v7.4c0 .4-.2.6-.7.6h-2.3c-.3 0-.6-.3-.6-.6v-18.9zM96.9 31.8c1.4 0 2.6.4 2.6.4.1-1.7-.4-2.5-1.9-2.5-1.2 0-3 .3-3.8.5-.4.1-.7-.2-.8-.6l-.3-1.5c-.1-.5.1-.7.4-.8.3-.1 2.4-.7 4.6-.7 4.2 0 5 2.2 5 5.8v7.2c0 .3-.3.6-.6.6h-1c-.2 0-.4-.1-.6-.5l-.4-.9c-.8.8-2.1 1.7-4.2 1.7-2.7 0-4.5-1.7-4.5-4.6.1-2.2 2.1-4.1 5.5-4.1zm.1 6.1c1.2 0 2.2-.9 2.4-1.4v-2s-.9-.4-2-.4c-1.5 0-2.4.7-2.4 1.9s.7 1.9 2 1.9zM106.4 27.5c0-.4.3-.6.6-.6h1.1c.3 0 .5.1.6.4l.5 1.3c.5-.7 1.7-2 3.8-2 1.6 0 2.9.4 2.5 1.3l-.9 2c-.1.3-.5.4-.8.3-.3-.1-.6-.3-1.2-.3-1.5 0-2.3.9-2.6 1.4v8.4c0 .5-.3.6-.8.6h-2.2c-.3 0-.6-.3-.6-.6v-12.2zM123.3 26.6c3.5 0 6.2 2.6 6.2 6.2 0 .2 0 .7-.1.9 0 .3-.3.6-.6.6h-8.6c0 1.7 1.4 3.1 3.3 3.1 1.3 0 2.3-.5 2.9-1 .3-.3.7-.3.9 0l1.1 1.5c.2.3.3.6-.1.9-1.2 1-2.8 1.8-5 1.8-4 0-6.8-3.2-6.8-7s2.8-7 6.8-7zm2.5 5.3c-.1-1.3-1.1-2.3-2.6-2.3-1.6 0-2.7 1-2.8 2.3h5.4zM145.1 26.6c3.8 0 6.9 3.2 6.9 7s-3.1 7-6.9 7c-3.8 0-6.8-3.2-6.8-7s3.1-7 6.8-7zm0 10.7c1.9 0 3.5-1.7 3.5-3.7s-1.6-3.7-3.5-3.7-3.5 1.6-3.5 3.7c0 2 1.6 3.7 3.5 3.7zM154.9 27.5c0-.4.3-.6.6-.6h1.1c.3 0 .5.1.6.4l.5 1.2c.5-.6 1.7-1.9 4.3-1.9 4.3 0 5.4 2.9 5.4 6.1v6.9c0 .3-.3.6-.6.6h-2.3c-.3 0-.6-.3-.6-.6v-6.9c0-1.7-.7-2.8-2.3-2.8-1.7 0-2.6 1.2-2.9 2.1v7.7c0 .5-.2.6-.8.6h-2.1c-.3 0-.6-.3-.6-.6v-12.2zM180.9 23.5h-4.4c-.3 0-.6-.3-.6-.6v-2.4c0-.3.2-.6.6-.6h12.7c.3 0 .6.3.6.6v2.4c0 .3-.2.6-.6.6h-4.4v16.3c0 .3-.3.6-.6.6h-2.7c-.3 0-.6-.3-.6-.6v-16.3zM189.1 27.7c-.2-.4.1-.8.6-.8h2.3c.2 0 .5.1.6.4l2 6.4 3.5-6.8c.1-.1.2-.3.5-.3h.3c.3 0 .5.1.6.3l3.5 6.8 2-6.4c.1-.4.4-.4.8-.4h2c.5 0 .8.3.6.8l-4.1 12.6c-.1.2-.3.4-.6.4h-.1c-.3 0-.4-.1-.6-.3l-4.2-8.1-4.2 8.1c-.1.2-.3.3-.5.3h-.2c-.3 0-.5-.2-.6-.4l-4.2-12.6zM210.3 22.3c0-1.3 1-2.3 2.3-2.3s2.3 1 2.3 2.3-1 2.3-2.3 2.3-2.3-1-2.3-2.3zm.5 5.2c0-.4.3-.6.6-.6h2.3c.3 0 .6.3.6.6v12.1c0 .3-.3.6-.6.6h-2.3c-.3 0-.6-.3-.6-.6v-12.1zM219.1 30.2h-1.3c-.3 0-.6-.3-.6-.6v-2c0-.4.3-.6.6-.6h1.3v-3.7c0-.3.3-.6.6-.6h2.4c.3 0 .6.3.6.6v3.7h3.1c.3 0 .6.3.6.6v2c0 .3-.3.6-.6.6h-3.1v6c0 .9.4 1.1 1.1 1.1.6 0 1.7-.3 2-.4.4-.1.7 0 .8.3l.4 1.8c.1.3-.1.6-.4.8-.5.3-2.4.9-3.8.9-3 0-3.7-2-3.7-4.3v-6.2zM230.4 30.2h-1.3c-.3 0-.6-.3-.6-.6v-2c0-.4.3-.6.6-.6h1.3v-3.7c0-.3.3-.6.6-.6h2.4c.3 0 .6.3.6.6v3.7h3.1c.3 0 .6.3.6.6v2c0 .3-.3.6-.6.6h-3.1v6c0 .9.4 1.1 1.1 1.1.6 0 1.7-.3 2-.4.4-.1.7 0 .8.3l.4 1.8c.1.3-.1.6-.4.8-.5.3-2.4.9-3.8.9-3 0-3.7-2-3.7-4.3v-6.2zM246.7 26.6c3.5 0 6.1 2.6 6.1 6.2 0 .2 0 .7-.1.9 0 .3-.3.6-.6.6h-8.6c0 1.7 1.4 3.1 3.3 3.1 1.3 0 2.3-.5 2.9-1 .3-.3.7-.3.9 0l1.1 1.5c.2.3.3.6-.1.9-1.2 1-2.8 1.8-5 1.8-4 0-6.8-3.2-6.8-7 .2-3.8 3-7 6.9-7zm2.5 5.3c-.1-1.3-1.1-2.3-2.6-2.3-1.6 0-2.7 1-2.8 2.3h5.4zM255.6 27.5c0-.4.3-.6.6-.6h1.1c.3 0 .5.1.6.4l.5 1.3c.5-.7 1.7-2 3.8-2 1.6 0 2.9.4 2.5 1.3l-.9 2c-.1.3-.5.4-.8.3-.3-.1-.6-.3-1.2-.3-1.5 0-2.3.9-2.6 1.4v8.4c0 .5-.3.6-.8.6h-2.2c-.3 0-.6-.3-.6-.6v-12.2z"/></g><path fill="#fff" d="M50.5 19.1c-1.3.6-2.7 1-4.1 1.1 1.5-.9 2.6-2.3 3.2-4-1.4.8-2.9 1.4-4.6 1.7-1.3-1.4-3.2-2.3-5.2-2.3-4 0-7.2 3.2-7.2 7.2 0 .6.1 1.1.2 1.6-6-.3-11.3-3.2-14.8-7.5-.6 1.1-1 2.3-1 3.6 0 2.5 1.3 4.7 3.2 6-1.2 0-2.3-.4-3.3-.9v.1c0 3.5 2.5 6.4 5.8 7-.6.2-1.2.3-1.9.3-.5 0-.9 0-1.4-.1.9 2.9 3.6 4.9 6.7 5-2.5 1.9-5.6 3.1-8.9 3.1-.6 0-1.2 0-1.7-.1 3.2 2 7 3.2 11 3.2 13.2 0 20.4-10.9 20.4-20.4v-.9c1.4-1 2.6-2.2 3.6-3.7z"/></svg>