<svg xmlns="http://www.w3.org/2000/svg" width="280" height="60" viewBox="0 0 280 60"><path fill="#75BCF4" d="M274 60h-268c-3.3 0-6-2.7-6-6v-48c0-3.3 2.7-6 6-6h268c3.3 0 6 2.7 6 6v48c0 3.3-2.7 6-6 6z"/><g fill="#fff"><path d="M60.7 18.8c-.2-.4.1-.8.5-.8h3.2c.3 0 .5.2.5.3l6 13.3h.2l6-13.3c.1-.2.2-.3.5-.3h3.2c.5 0 .7.4.5.8l-9.6 20.9c-.1.2-.2.3-.5.3h-.3c-.3 0-.4-.2-.5-.3l-9.7-20.9zM82.8 20.4c0-1.4 1.1-2.4 2.4-2.4 1.4 0 2.5 1.1 2.5 2.4s-1.1 2.5-2.5 2.5-2.4-1.1-2.4-2.5zm.5 5.7c0-.4.3-.7.7-.7h2.5c.3 0 .7.3.7.7v13c0 .4-.3.7-.7.7h-2.5c-.3 0-.7-.3-.7-.7v-13zM97.5 25.1c3.7 0 6.6 2.8 6.6 6.6 0 .2 0 .7-.1.9 0 .4-.4.7-.7.7h-9.2c0 1.8 1.5 3.3 3.6 3.3 1.4 0 2.4-.5 3.1-1.1.3-.3.7-.3.9 0l1.2 1.6c.2.3.3.6-.1.9-1.2 1.1-3 2-5.3 2-4.3 0-7.3-3.4-7.3-7.5.1-4 3.1-7.4 7.3-7.4zm2.7 5.6c-.1-1.4-1.2-2.5-2.8-2.5-1.7 0-2.9 1.1-3 2.5h5.8zM105.6 26.2c-.2-.4.1-.8.6-.8h2.4c.2 0 .6.2.6.4l2.2 6.8 3.8-7.3c.1-.2.2-.3.6-.3h.3c.3 0 .5.1.6.3l3.7 7.3 2.1-6.8c.1-.4.4-.4.8-.4h2.2c.5 0 .8.4.7.8l-4.4 13.5c-.1.2-.3.4-.7.4h-.1c-.3 0-.5-.2-.6-.3l-4.5-8.6-4.5 8.6c-.1.2-.3.3-.6.3h-.2c-.3 0-.6-.2-.6-.4l-4.4-13.5zM142.8 25.1c4.1 0 7.3 3.4 7.3 7.4 0 4.1-3.3 7.5-7.3 7.5s-7.3-3.4-7.3-7.5c0-4 3.3-7.4 7.3-7.4zm0 11.4c2.1 0 3.8-1.8 3.8-4s-1.7-3.9-3.8-3.9-3.7 1.7-3.7 3.9 1.6 4 3.7 4zM153.2 26.1c0-.4.3-.7.7-.7h1.2c.3 0 .5.2.6.4l.5 1.3c.5-.6 1.9-2.1 4.6-2.1 4.6 0 5.7 3.1 5.7 6.5v7.5c0 .4-.3.7-.7.7h-2.5c-.4 0-.7-.3-.7-.7v-7.4c0-1.9-.7-3-2.5-3-1.9 0-2.8 1.2-3.1 2.2v8.2c0 .5-.2.7-.9.7h-2.3c-.3 0-.7-.3-.7-.7v-12.9zM176.5 18.7c-.1-.4.1-.7.6-.7h2.9c.2 0 .5.2.6.4l3.2 12.4h.1l4.9-12.8c.1-.2.2-.3.5-.3h.6c.3 0 .5.2.5.3l5 12.8h.1l3.2-12.4c.1-.2.3-.4.6-.4h2.9c.4 0 .7.3.6.7l-5.9 20.8c-.1.2-.3.4-.6.4h-.5c-.3 0-.5-.2-.5-.3l-5.6-14h-.2l-5.5 14c-.1.2-.2.3-.5.3h-.5c-.2 0-.5-.2-.6-.4l-5.9-20.8zM208.5 30.6c1.5 0 2.8.4 2.8.4.1-1.8-.5-2.7-2-2.7-1.3 0-3.2.3-4 .5-.5.2-.7-.2-.8-.6l-.3-1.6c-.1-.5.2-.8.5-.9.3-.1 2.6-.7 4.9-.7 4.5 0 5.4 2.3 5.4 6.2v7.8c0 .4-.3.7-.7.7h-1.1c-.2 0-.4-.1-.6-.5l-.4-1c-.8.8-2.3 1.8-4.5 1.8-2.9 0-4.8-1.8-4.8-4.9-.1-2.5 1.9-4.5 5.6-4.5zm0 6.6c1.3 0 2.4-1 2.6-1.5v-2.1s-1-.4-2.1-.4c-1.6 0-2.5.8-2.5 2 0 1.1.7 2 2 2zM236 25.4c.4 0 .7.3.7.7v2.1c0 .3-.3.7-.7.7h-2.7v10.1c0 .4-.3.7-.7.7h-2.5c-.4 0-.7-.3-.7-.7v-10.2h-5.8v10.2c0 .4-.3.7-.7.7h-2.5c-.4 0-.7-.3-.7-.7v-10.2h-1.6c-.4 0-.7-.3-.7-.7v-2.1c0-.4.3-.7.7-.7h1.6v-.6c0-3.8 2.7-6.8 6.5-6.8 2.4 0 3.7.8 4.6 1.5 1.1-1.2 3-1.8 4.5-1.8 2.5 0 4.2.9 5.1 1.9l.4-1c.2-.4.4-.7.8-.7h.8c.4 0 .7.3.7.7v20.5c0 .4-.3.7-.7.7h-2.5c-.3 0-.7-.3-.7-.7v-15.6c-.3-.7-1.6-2.1-3.3-2.1-1.9 0-2.7 1.1-2.7 2.9v1.2h2.8zm-6.5 0v-1.2c0-.6 0-1.2.1-1.7-.5-.5-1.6-1-3-1-2.2 0-2.9 1.5-2.9 3.3v.6h5.8zM253.7 25.1c3.7 0 6.6 2.8 6.6 6.6 0 .2 0 .7-.1.9 0 .4-.4.7-.7.7h-9.2c0 1.8 1.5 3.3 3.6 3.3 1.4 0 2.4-.5 3.1-1.1.3-.3.7-.3.9 0l1.2 1.6c.2.3.3.6-.1.9-1.2 1.1-3 2-5.3 2-4.3 0-7.3-3.4-7.3-7.5 0-4 3-7.4 7.3-7.4zm2.6 5.6c-.1-1.4-1.2-2.5-2.8-2.5-1.7 0-2.9 1.1-3 2.5h5.8z"/></g><path fill="#fff" d="M15 30l18 18 18-18-18-18-18 18zm20.5-12.3l-2.5 2.5-2.5-2.5 2.5-2.5 2.5 2.5zm-6.6 6.6l-2.5-2.5 2.5-2.5 2.5 2.5-2.5 2.5zm4.1-.8l2.5 2.5-2.5 2.4-2.5-2.5 2.5-2.4zm-5.7 2.4l-2.5 2.5-2.5-2.5 2.5-2.5 2.5 2.5zm1.6 1.6l2.5 2.5-2.5 2.5-2.4-2.5 2.4-2.5zm-1.6 6.6l-2.5 2.5-2.5-2.5 2.5-2.5 2.5 2.5zm1.6 1.6l2.5 2.5-2.5 2.5-2.5-2.5 2.5-2.5zm1.6-1.6l2.5-2.5 2.5 2.5-2.5 2.4-2.5-2.4zm6.6 1.6l2.5 2.5-2.5 2.5-2.5-2.5 2.5-2.5zm1.6-1.6l2.5-2.5 2.5 2.5-2.5 2.5-2.5-2.5zm-1.6-1.6l-2.5-2.5 2.5-2.5 2.5 2.5-2.5 2.5zm1.6-6.6l2.5-2.5 2.5 2.5-2.5 2.5-2.5-2.5zm-1.6-1.6l-2.5-2.5 2.5-2.5 2.5 2.5-2.5 2.5zm-16.4 3.2l2.5 2.5-2.5 2.5-2.4-2.5 2.4-2.5zm9.8 14.8l2.5-2.5 2.5 2.5-2.5 2.4-2.5-2.4zm14.8-9.8l-2.5-2.5 2.5-2.5 2.5 2.5-2.5 2.5z"/></svg>